<?xml version="1.0" encoding="utf-8"?>
<!-- Generator: Adobe Illustrator 16.0.0, SVG Export Plug-In . SVG Version: 6.00 Build 0)  -->
<!DOCTYPE svg PUBLIC "-//W3C//DTD SVG 1.1//EN" "http://www.w3.org/Graphics/SVG/1.1/DTD/svg11.dtd">
<svg version="1.1" id="Layer_1" xmlns="http://www.w3.org/2000/svg" xmlns:xlink="http://www.w3.org/1999/xlink" x="0px" y="0px"
	 width="256px" height="256px" viewBox="0 0 256 256" enable-background="new 0 0 256 256" xml:space="preserve">
<path d="M256,41.357C256,55.971,241.854,68,224.081,68H33.177C15.404,68,0,55.971,0,41.357v-0.373C0,26.371,15.404,15,33.177,15
	h190.904C241.854,15,256,26.371,256,40.984V41.357z"/>
<path d="M256,127.285C256,141.899,241.854,155,224.081,155H33.177C15.404,155,0,141.899,0,127.285v-0.372
	C0,112.3,15.404,100,33.177,100h190.904C241.854,100,256,112.3,256,126.913V127.285z"/>
<path d="M256,214.101C256,228.714,241.854,242,224.081,242H33.177C15.404,242,0,228.714,0,214.101v-0.375
	C0,199.113,15.404,188,33.177,188h190.904C241.854,188,256,199.113,256,213.726V214.101z"/>
</svg>
